<svg width="44" height="44" viewBox="0 0 44 44" fill="none" xmlns="http://www.w3.org/2000/svg">
<path d="M34.6945 10.354C32.3723 9.27145 29.8579 8.48572 27.2388 8.03174C27.1927 8.03239 27.1488 8.05122 27.1166 8.08412C26.8023 8.66033 26.4356 9.41114 26.1911 9.98735C23.4131 9.56855 20.588 9.56855 17.81 9.98735C17.5655 9.39368 17.1988 8.66033 16.8671 8.08412C16.8496 8.0492 16.7972 8.03174 16.7449 8.03174C14.1257 8.48572 11.6288 9.27145 9.28909 10.354C9.27163 10.354 9.25417 10.3715 9.23671 10.3889C4.48737 17.4955 3.17781 24.41 3.82386 31.2546C3.82386 31.2895 3.84132 31.3244 3.87625 31.3419C7.01919 33.6467 10.0399 35.0436 13.0257 35.969C13.0781 35.9865 13.1305 35.969 13.1479 35.9341C13.8464 34.9737 14.4749 33.961 15.0162 32.8959C15.0512 32.8261 15.0162 32.7562 14.9464 32.7388C13.9511 32.3546 13.0082 31.9006 12.0828 31.3768C12.013 31.3419 12.013 31.2371 12.0654 31.1848C12.2574 31.0451 12.4495 30.8879 12.6416 30.7482C12.6765 30.7133 12.7289 30.7133 12.7638 30.7308C18.7703 33.4721 25.2483 33.4721 31.1849 30.7308C31.2199 30.7133 31.2722 30.7133 31.3072 30.7482C31.4992 30.9054 31.6913 31.0451 31.8834 31.2022C31.9532 31.2546 31.9532 31.3594 31.8659 31.3943C30.9579 31.9356 29.9976 32.3721 29.0023 32.7562C28.9325 32.7737 28.915 32.861 28.9325 32.9134C29.4912 33.9785 30.1198 34.9912 30.8008 35.9515C30.8532 35.969 30.9056 35.9865 30.9579 35.969C33.9612 35.0436 36.9819 33.6467 40.1249 31.3419C40.1598 31.3244 40.1772 31.2895 40.1772 31.2546C40.9455 23.3449 38.9026 16.4828 34.7644 10.3889C34.7469 10.3715 34.7295 10.354 34.6945 10.354ZM15.9242 27.0815C14.1257 27.0815 12.6241 25.4227 12.6241 23.3798C12.6241 21.3369 14.0908 19.6781 15.9242 19.6781C17.775 19.6781 19.2417 21.3543 19.2243 23.3798C19.2243 25.4227 17.7576 27.0815 15.9242 27.0815ZM28.0944 27.0815C26.2959 27.0815 24.7943 25.4227 24.7943 23.3798C24.7943 21.3369 26.261 19.6781 28.0944 19.6781C29.9452 19.6781 31.4119 21.3543 31.3945 23.3798C31.3945 25.4227 29.9452 27.0815 28.0944 27.0815Z" fill="white"/>
</svg>
