<svg width="44" height="44" viewBox="0 0 44 44" fill="none" xmlns="http://www.w3.org/2000/svg">
<path d="M21.9998 15.8975C18.6213 15.8975 15.8975 18.6475 15.8975 21.9998C15.8975 25.3522 18.6475 28.1022 21.9998 28.1022C25.3522 28.1022 28.1022 25.3522 28.1022 21.9998C28.1022 18.6475 25.3522 15.8975 21.9998 15.8975ZM40.3332 21.9998C40.3332 19.4594 40.3332 16.9713 40.2022 14.4308C40.0713 11.4975 39.3903 8.87841 37.2427 6.75698C35.0951 4.60936 32.5022 3.92841 29.5689 3.79746C27.0284 3.6665 24.5403 3.6665 21.9998 3.6665C19.4594 3.6665 16.9713 3.6665 14.4308 3.79746C11.4975 3.92841 8.87841 4.60936 6.75698 6.75698C4.60936 8.9046 3.92841 11.4975 3.79746 14.4308C3.6665 16.9713 3.6665 19.4594 3.6665 21.9998C3.6665 24.5403 3.6665 27.0284 3.79746 29.5689C3.92841 32.5022 4.60936 35.1213 6.75698 37.2427C8.9046 39.3903 11.4975 40.0713 14.4308 40.2022C16.9713 40.3332 19.4594 40.3332 21.9998 40.3332C24.5403 40.3332 27.0284 40.3332 29.5689 40.2022C32.5022 40.0713 35.1213 39.3903 37.2427 37.2427C39.3903 35.0951 40.0713 32.5022 40.2022 29.5689C40.3594 27.0546 40.3332 24.5403 40.3332 21.9998ZM21.9998 31.4022C16.7879 31.4022 12.5975 27.2117 12.5975 21.9998C12.5975 16.7879 16.7879 12.5975 21.9998 12.5975C27.2117 12.5975 31.4022 16.7879 31.4022 21.9998C31.4022 27.2117 27.2117 31.4022 21.9998 31.4022ZM31.7951 14.4046C30.5903 14.4046 29.5951 13.4356 29.5951 12.2046C29.5951 10.9736 30.5641 10.0046 31.7951 10.0046C33.026 10.0046 33.9951 10.9736 33.9951 12.2046C34.0017 12.4915 33.9493 12.7767 33.8412 13.0425C33.7331 13.3083 33.5715 13.549 33.3665 13.7498C33.1657 13.9548 32.9249 14.1164 32.6591 14.2245C32.3933 14.3327 32.1081 14.385 31.8213 14.3784L31.7951 14.4046Z" fill="white"/>
</svg>
