<svg width="44" height="44" viewBox="0 0 44 44" fill="none" xmlns="http://www.w3.org/2000/svg">
<path d="M31.3705 9.41095C29.9784 7.8211 29.2111 5.77972 29.2113 3.6665H22.9168V28.9258C22.8693 30.293 22.2925 31.5883 21.3082 32.5384C20.3239 33.4886 19.009 34.0192 17.6409 34.0184C14.7483 34.0184 12.3446 31.6554 12.3446 28.7221C12.3446 25.2184 15.7261 22.5906 19.2094 23.6702V17.2332C12.1816 16.2961 6.02979 21.7554 6.02979 28.7221C6.02979 35.5054 11.652 40.3332 17.6205 40.3332C24.0168 40.3332 29.2113 35.1387 29.2113 28.7221V15.9091C31.7637 17.7421 34.8281 18.7256 37.9705 18.7202V12.4258C37.9705 12.4258 34.1409 12.6091 31.3705 9.41095Z" fill="white"/>
</svg>
