<svg width="44" height="44" viewBox="0 0 44 44" fill="none" xmlns="http://www.w3.org/2000/svg">
<path d="M18.3332 27.4998L27.8482 21.9998L18.3332 16.4998V27.4998ZM39.5265 13.1448C39.7648 14.0065 39.9298 15.1615 40.0398 16.6282C40.1682 18.0948 40.2232 19.3598 40.2232 20.4598L40.3332 21.9998C40.3332 26.0148 40.0398 28.9665 39.5265 30.8548C39.0682 32.5048 38.0048 33.5682 36.3548 34.0265C35.4932 34.2648 33.9165 34.4298 31.4965 34.5398C29.1132 34.6682 26.9315 34.7232 24.9148 34.7232L21.9998 34.8332C14.3182 34.8332 9.53317 34.5398 7.64484 34.0265C5.99484 33.5682 4.9315 32.5048 4.47317 30.8548C4.23484 29.9932 4.06984 28.8382 3.95984 27.3715C3.8315 25.9048 3.7765 24.6398 3.7765 23.5398L3.6665 21.9998C3.6665 17.9848 3.95984 15.0332 4.47317 13.1448C4.9315 11.4948 5.99484 10.4315 7.64484 9.97317C8.5065 9.73484 10.0832 9.56984 12.5032 9.45984C14.8865 9.3315 17.0682 9.2765 19.0848 9.2765L21.9998 9.1665C29.6815 9.1665 34.4665 9.45984 36.3548 9.97317C38.0048 10.4315 39.0682 11.4948 39.5265 13.1448Z" fill="white"/>
</svg>
